<?xml version="1.0" standalone="no"?><!DOCTYPE svg PUBLIC "-//W3C//DTD SVG 1.1//EN" "http://www.w3.org/Graphics/SVG/1.1/DTD/svg11.dtd"><svg t="1750491304298" class="icon" viewBox="0 0 1024 1024" version="1.1" xmlns="http://www.w3.org/2000/svg" p-id="21824" xmlns:xlink="http://www.w3.org/1999/xlink" width="200" height="200"><path d="M28.444444 325.518222L586.922667 0 995.555556 240.071111l-133.461334 76.231111L586.922667 162.702222 168.049778 401.749333z" fill="#F8BF3C" p-id="21825"></path><path d="M28.444444 325.518222v146.318222l139.605334 77.255112v-147.342223zM586.922667 162.759111v154.510222l275.171555 154.567111V316.245333z" fill="#E55B2D" p-id="21826"></path><path d="M862.094222 316.302222L995.555556 240.071111V391.395556l-133.461334 80.384zM168.049778 401.749333l418.872889-238.933333v309.020444l-139.605334 86.471112V401.806222l-279.267555 147.342222z" fill="#EC8E23" p-id="21827"></path><path d="M447.317333 401.749333l-141.653333 74.752v465.066667L447.317333 1024v-311.125333l137.557334 74.183111v-148.366222L447.317333 558.364444z" fill="#E55B2D" p-id="21828"></path><path d="M447.317333 558.364444l139.605334-86.528 137.614222 86.471112-139.662222 80.384z" fill="#F8BF3C" p-id="21829"></path><path d="M584.874667 638.691556l139.662222-80.327112v154.510223L584.817778 787.057778z" fill="#EC8E23" p-id="21830"></path><path d="M447.317333 712.874667l137.557334 74.183111v168.96L447.317333 1024z" fill="#EC8E23" p-id="21831"></path></svg>