<?xml version="1.0" standalone="no"?><!DOCTYPE svg PUBLIC "-//W3C//DTD SVG 1.1//EN" "http://www.w3.org/Graphics/SVG/1.1/DTD/svg11.dtd"><svg t="1750491249120" class="icon" viewBox="0 0 3403 1024" version="1.1" xmlns="http://www.w3.org/2000/svg" p-id="19951" xmlns:xlink="http://www.w3.org/1999/xlink" width="664.6484375" height="200"><path d="M1891.440462 941.31052h-120.068439V557.576879c38.355607 21.367861 89.052486 60.788902 120.068439 98.611792v285.121849z" fill="#AC162C" p-id="19952"></path><path d="M878.242775 941.31052h-149.693411l-195.359075-603.834451h136.168324l134.481387 424.545665h1.686936l136.138729-424.545665h136.996994l-200.419884 603.834451zM1481.307746 941.31052h-114.208555v-60.877688h-2.515607c-15.241618 25.392832-34.952139 43.71237-59.220347 54.988208-24.238613 11.275838-49.039538 16.89896-74.43237 16.89896-32.140578 0-58.480462-4.232139-79.078844-12.666821-20.568786-8.434682-36.787052-20.450405-48.625202-35.928786-11.867746-15.507977-20.184046-34.389827-24.978497-56.675144-4.764855-22.255723-7.162081-46.938266-7.162081-73.98844v-268.962774h120.098034v246.943815c0 36.076763 5.652717 63.008555 16.928555 80.76578 11.275838 17.786821 31.282312 26.635838 60.049018 26.635838 32.70289 0 56.379191-9.707283 71.028901-29.18104 14.679306-19.473757 21.989364-51.466358 21.989365-96.007399v-229.18659h120.12763v437.242081z" fill="#AC162C" p-id="19953"></path><path d="M1911.387746 678.296416l-0.295954-16.928555 151.380347-157.269826h142.116994l-164.935029 160.673294 183.520925 276.539191h-145.461272l-166.326011-263.014104zM2245.164393 638.549827c1.686936-28.174798 8.760231-51.58474 21.160694-70.200232 12.400462-18.615491 28.174798-33.531561 47.352601-44.807398 19.177803-11.275838 40.752832-19.32578 64.725087-24.090636 23.942659-4.794451 48.06289-7.191676 72.301502-7.191677 21.989364 0 44.245087 1.53896 66.796763 4.646474 22.581272 3.107514 43.120462 9.174566 61.735954 18.201156 18.585896 9.02659 33.827514 21.575029 45.69526 37.615723 11.83815 16.070289 17.757225 37.349364 17.757226 63.866821v227.499653c0 19.740116 1.124624 38.651561 3.373873 56.675144 2.249249 18.053179 6.215029 31.578266 11.867745 40.604856h-121.784971c-2.249249-6.747746-4.084162-13.673064-5.50474-20.716763-1.390983-7.043699-2.397225-14.20578-2.959537-21.575029-19.177803 19.769711-41.759075 33.561156-67.684625 41.463121a272.247861 272.247861 0 0 1-79.493179 11.838151c-20.86474 0-40.338497-2.545202-58.332485-7.606012-18.053179-5.060809-33.85711-12.962775-47.352601-23.6763-13.554682-10.713526-24.149827-24.238613-31.726243-40.604856-7.606012-16.336647-11.423815-35.780809-11.423815-58.332485 0-24.800925 4.380116-45.251329 13.110751-61.321619 8.760231-16.070289 20.006474-28.885087 33.85711-38.473988 13.82104-9.588902 29.595376-16.780578 47.352601-21.575029s35.662428-8.612254 53.686012-11.423815c18.053179-2.781965 35.810405-5.060809 53.301271-6.747746 17.490867-1.686936 32.969249-4.232139 46.494336-7.606012 13.554682-3.403468 24.238613-8.316301 32.140578-14.827283 7.901965-6.481387 11.571792-15.922312 11.009479-28.322774 0-12.962775-2.130867-23.261965-6.363005-30.867977-4.232139-7.606012-9.85526-13.525087-16.89896-17.757226-7.043699-4.232139-15.212023-7.043699-24.534566-8.464277-9.322543-1.420578-19.296185-2.130867-30.009711-2.130867-23.676301 0-42.291792 5.060809-55.816879 15.241618-13.525087 10.151214-21.427052 27.050173-23.676301 50.75607h-120.157225v-0.088786z m277.397457 88.815722c-5.090405 4.528092-11.423815 8.020347-19.029827 10.565549-7.606012 2.574798-15.774335 4.676069-24.534566 6.363006-8.730636 1.686936-17.905202 3.107514-27.464509 4.232139-9.588902 1.124624-19.177803 2.515607-28.766705 4.232139-9.02659 1.686936-17.905202 3.96578-26.635838 6.747745-8.730636 2.841156-16.366243 6.629364-22.84763 11.423815-6.481387 4.794451-11.690173 10.861503-15.655954 18.171561-3.936185 7.339653-5.919075 16.632601-5.919075 27.908439 0 10.713526 1.98289 19.740116 5.919075 27.050174 3.96578 7.339653 9.322543 13.110751 16.070289 17.34289 6.777341 4.232139 14.649711 7.191676 23.6763 8.878612 9.02659 1.686936 18.319538 2.515607 27.90844 2.515607 23.676301 0 42.025434-3.936185 54.988208-11.808554 12.962775-7.901965 22.581272-17.34289 28.73711-28.35237 6.185434-10.979884 10.032832-22.107746 11.394219-33.383584 1.420578-11.275838 2.101272-20.302428 2.130867-27.050174v-44.836994h0.029596zM2720.436532 504.098035h114.208555v60.877688h2.515607c15.212023-25.363237 34.952139-43.830751 59.190751-55.372948 24.238613-11.571792 49.069133-17.34289 74.402775-17.342891 32.170173 0 58.510058 4.380116 79.108439 13.110752 20.568786 8.760231 36.757457 20.86474 48.625202 36.372717 11.83815 15.507977 20.154451 34.389827 24.948902 56.645549 4.794451 22.285318 7.191676 46.938266 7.191676 74.018034v268.93318h-120.068439v-246.943815c0-36.106358-5.652717-63.008555-16.89896-80.765781-11.305434-17.757225-31.311908-26.635838-60.078612-26.635838-32.70289 0-56.349595 9.736879-71.028902 29.181041-14.679306 19.414566-21.989364 51.436763-21.989364 95.977803v229.18659h-120.098035V504.098035h-0.029595zM1560.771329 428.659422v512.680694h120.098035V494.864277a1498.659514 1498.659514 0 0 0-120.098035-66.204855z" fill="#AC162C" p-id="19954"></path><path d="M335.700347 450.471214c69.608324-203.882543 485.808092-278.670058 929.738728-167.006705 266.269595 66.94474 483.854798 196.809249 625.971792 325.223583C1826.922543 438.366705 1514.247399 195.566243 1083.723468 112.344046 596.938728 18.230751 116.812948 100.949827 57.385434 316.966474c-42.913295 156.056416 145.550058 338.867052 437.005317 463.877919-130.929942-106.010636-194.619191-225.102428-158.690404-330.373179zM1891.618035 534.551676v-197.075607h-120.12763v59.84185c51.229595 45.754451 91.864046 92.337572 120.12763 137.233757z" fill="#AC162C" p-id="19955"></path><path d="M3344.218266 877.295723c0 36.283931-28.500347 64.784277-65.553757 64.784277-36.698266 0-65.968092-28.500347-65.968093-64.784277 0-35.514451 29.269827-64.014798 65.968093-64.014798 37.05341 0 65.553757 28.500347 65.553757 64.014798z m-115.126012 0c0 28.500347 21.071908 51.111214 49.956995 51.111213 28.086012 0 48.773179-22.640462 48.773179-50.726474 0-28.500347-20.687168-51.525549-49.187515-51.525549-28.470751 0.029595-49.542659 23.054798-49.542659 51.14081z m39.450636 33.561156h-14.886474v-64.014798c5.859884-1.183815 14.057803-1.953295 24.593757-1.953295 12.104509 0 17.550058 1.953295 22.255723 4.676069 3.52185 2.722775 6.244624 7.813179 6.244624 14.057804 0 7.014104-5.475145 12.489249-13.258728 14.827283v0.76948c6.244624 2.338035 9.766474 7.014104 11.719769 15.596763 1.953295 9.766474 3.107514 13.673064 4.676069 16.011098h-16.011098c-1.953295-2.338035-3.107514-8.197919-5.060809-15.596763-1.183815-7.014104-5.060809-10.151214-13.258729-10.151214h-7.014104v25.777573z m0.325549-36.283931h7.0437c8.197919 0 14.827283-2.722775 14.827283-9.381734 0-5.859884-4.291329-9.766474-13.673064-9.766474-3.90659 0-6.629364 0.38474-8.197919 0.76948v18.378728z" fill="#AC162C" p-id="19956"></path></svg>